<svg width="362" height="138" viewBox="0 0 362 138" fill="none" xmlns="http://www.w3.org/2000/svg">
<path d="M63.6 30.07C61.74 27.21 59.32 24.99 56.41 23.48C53.52 22.03 50.44 21.32 47.23 21.32H47.13C43.19 21.43 39.78 22.38 36.71 24.25L36.63 24.3C35.32 25.14 34.19 26.08 33.24 27.15C32.27 26.08 31.13 25.14 29.81 24.36C26.66 22.48 23.07 21.51 19.39 21.51H19.33H19.26C15.92 21.62 12.93 22.32 10.39 23.54C7.47 24.94 5.03 27.07 3.13 29.86C2.13 31.31 1.31 32.93 0.74 34.65L0.71 34.7L0.69 34.78C0.24 36.39 0 38.19 0 40.14V76.13H10.42C10.42 76.13 10.42 41.71 10.42 41.3C10.66 38.79 11.14 37 11.83 35.97L11.85 35.93L11.89 35.88C12.78 34.46 13.83 33.43 15.12 32.75C16.44 32.06 17.77 31.72 19.21 31.72C21.03 31.72 22.37 32.03 23.68 32.79C25.08 33.56 26.14 34.62 26.96 36.07L26.99 36.13C27.81 37.47 28.22 39.15 28.22 41.1V76.14H38.63V40.72C38.63 39.92 38.74 39.12 38.97 38.16C39.26 37.33 39.59 36.59 39.94 36.06L39.97 36.02L40.01 35.97C40.93 34.47 41.89 33.54 43.02 33L43.08 32.97C44.54 32.25 45.92 31.91 47.43 31.91C48.93 31.91 50.29 32.22 51.6 32.87L51.66 32.9L51.72 32.93C52.89 33.46 53.83 34.36 54.8 35.85L54.84 35.89L54.88 35.94C55.52 36.85 55.78 37.49 55.88 37.87C56.13 38.88 56.26 39.69 56.26 40.52V76.13H66.65V40.72C66.65 38.7 66.34 36.76 65.76 34.95C65.25 33.13 64.54 31.48 63.6 30.07ZM65.7 34.83C65.71 34.87 65.71 34.91 65.73 34.95C65.74 35 65.76 35.04 65.76 35.09L65.7 34.83ZM113.13 25.23C113.13 25.24 113.15 25.24 113.17 25.25C113.17 25.26 113.19 25.26 113.19 25.26L113.13 25.23ZM106.1 22.43C106.14 22.43 106.17 22.44 106.2 22.45C106.23 22.45 106.26 22.47 106.29 22.47L106.1 22.43ZM116.43 50.13C116.43 51.86 116.26 53.18 115.89 54.14L115.86 54.2L115.84 54.26C115.36 55.72 114.59 57.16 113.78 58.63C112.29 61.1 110.29 63.06 107.64 64.58L107.56 64.62C106.28 65.41 104.93 65.98 103.54 66.31H103.48L103.41 66.32C101.95 66.73 100.45 66.94 98.92 66.95C98.41 66.87 95.54 66.44 95.09 66.37C92.07 65.47 89.56 64.14 87.65 62.39C87.62 62.35 87.58 62.32 87.54 62.28C87.83 62.07 124.36 37.34 124.36 37.34L122.91 34.66C120.85 30.85 117.65 27.78 113.15 25.24C110.92 23.93 108.64 23.02 106.18 22.45C103.92 21.81 101.43 21.5 98.73 21.5C93.69 21.5 89.15 22.77 84.9 25.38C80.88 27.86 77.61 31.24 75.2 35.4C73.78 37.71 72.94 39.93 72.26 41.99L72.23 42.06L72.22 42.13C71.56 44.42 71.24 46.78 71.24 49.18C71.24 52.19 71.57 54.56 72.25 56.64C72.99 59.04 73.95 61.16 75.18 63.15C77.66 67.44 81.08 70.86 85.37 73.32L85.43 73.35C89.86 75.79 94.6 76.97 99.51 76.87C104.31 76.87 108.73 75.82 112.66 73.76C116.89 71.58 120.21 68.55 122.8 64.49C124.44 62.01 125.46 59.78 125.97 57.48C125.95 57.58 125.93 57.66 125.89 57.76L125.97 57.48C126.66 55.22 126.99 52.83 126.99 50.13V46.77H116.42V50.13H116.43ZM82.49 53.04C82.19 51.8 82.04 50.62 82.04 49.48C82.07 49.14 82.2 47.72 82.2 47.72C82.2 47.74 82.33 46.56 82.37 46.07C83.02 42.86 84.2 40.19 85.89 38.12L85.92 38.06C87.72 35.78 89.55 34.32 91.64 33.44L91.74 33.4C94.18 32.29 96.44 31.82 98.84 31.89L98.95 31.9C101.59 31.9 104.05 32.42 106.44 33.48L106.5 33.51L106.56 33.54C107.5 33.92 108.32 34.37 109.08 34.92C103.83 38.49 82.91 52.76 82.49 53.04ZM75.19 35.44C75.2 35.43 75.2 35.42 75.22 35.41C75.22 35.39 75.24 35.37 75.26 35.37L75.19 35.44ZM72.28 56.67C72.28 56.65 72.27 56.65 72.27 56.63C72.26 56.62 72.25 56.6 72.25 56.57L72.28 56.67ZM99.57 76.88C99.57 76.88 99.54 76.88 99.52 76.88H99.57ZM75.26 63.24C75.24 63.21 75.22 63.19 75.2 63.14C75.2 63.14 75.19 63.13 75.19 63.12L75.26 63.24ZM122.82 64.47C122.82 64.48 122.81 64.48 122.81 64.5C122.79 64.51 122.79 64.53 122.77 64.54L122.82 64.47ZM142.15 9.52H131.57V58.99C131.57 64.35 133.15 68.6 136.28 71.61C139.41 74.59 143.26 76.13 147.75 76.13H158.76V65.63C158.76 65.63 149.67 65.91 149.4 65.92C149.21 65.91 148.84 65.9 148.84 65.9C147.94 65.85 147.02 65.8 146.6 65.62L146.18 65.45L145.75 65.39C145.19 65.32 144.8 65.07 144.07 64.58L143.9 64.46L143.83 64.42C142.91 63.87 142.34 62.52 142.16 60.41V32.64C146.44 32.64 158.76 32.64 158.76 32.64V22.44C158.76 22.44 146.44 22.44 142.16 22.44C142.15 18.77 142.15 9.52 142.15 9.52ZM172.24 2.24C169.04 3.9 166.62 6.07 165.03 8.68C163.35 11.37 162.56 14.28 162.56 17.87V76.12H173.14C173.14 76.12 173.14 38.36 173.14 32.64C177.73 32.64 192.47 32.64 192.47 32.64V22.44C192.47 22.44 177.73 22.44 173.14 22.44C173.14 21.28 173.14 20.04 173.14 20.04C173.14 16.88 173.82 14.56 175.21 12.95C176.11 12 176.91 11.37 177.87 10.89C178.84 10.43 179.9 10.21 181.37 10.21H192.46V0H182.6C178.69 0 175.21 0.75 172.24 2.24ZM301.13 37.54C301.13 37.55 301.13 37.59 301.14 37.61C301.15 37.65 301.15 37.67 301.17 37.71L301.13 37.54ZM298.69 32C296.8 28.74 294.1 26.17 290.45 24.18L290.38 24.13C286.78 22.28 282.96 21.39 279.04 21.5H278.97C276.48 21.6 274.26 21.96 272.23 22.58L272.11 22.61L272.01 22.65C269.68 23.52 267.78 24.55 266.35 25.73C263.2 28.17 260.99 31.05 259.59 34.55C258.27 37.8 257.66 40.75 257.66 43.53V76.12H268.23V43.81C268.23 41.72 268.76 39.82 269.88 37.81C270.93 35.87 272.31 34.4 274.1 33.27L274.16 33.23C275.71 32.22 277.51 31.7 279.49 31.7H279.68C282.27 31.7 284.35 32.34 286.24 33.68C288.19 35.25 289.46 36.82 290.12 38.52L290.14 38.57C291.01 40.68 291.4 42.59 291.4 44.57V76.12H302V44.01C302 41.84 301.7 39.68 301.13 37.61C300.7 35.69 299.87 33.8 298.69 32ZM266.3 25.78C266.32 25.76 266.34 25.75 266.36 25.72C266.38 25.71 266.41 25.69 266.42 25.68L266.3 25.78ZM298.61 31.86C298.65 31.91 298.67 31.96 298.69 32C298.71 32.02 298.72 32.02 298.73 32.04L298.61 31.86ZM333.77 76.88C333.75 76.88 333.74 76.88 333.72 76.88H333.7H333.77ZM347.33 25.23C347.35 25.24 347.35 25.24 347.37 25.25C347.39 25.26 347.39 25.26 347.4 25.27L347.33 25.23ZM340.3 22.43C340.34 22.43 340.38 22.44 340.39 22.45C340.43 22.45 340.46 22.47 340.49 22.47L340.3 22.43ZM357.01 64.47C357.01 64.48 357.01 64.48 356.99 64.5C356.98 64.51 356.97 64.53 356.96 64.54L357.01 64.47ZM350.63 46.77V50.13C350.63 51.86 350.45 53.18 350.09 54.14L350.08 54.2L350.05 54.26C349.57 55.72 348.79 57.16 347.98 58.63C346.49 61.1 344.5 63.06 341.84 64.58L341.77 64.61C340.48 65.4 339.13 65.97 337.75 66.31H337.68L337.61 66.32C336.16 66.73 334.65 66.94 333.12 66.95C332.62 66.87 329.75 66.44 329.29 66.37C326.27 65.47 323.76 64.14 321.85 62.39C321.82 62.35 321.78 62.32 321.74 62.28C322.03 62.07 358.58 37.34 358.58 37.34L357.12 34.66C355.06 30.85 351.85 27.78 347.36 25.24C345.13 23.93 342.86 23.02 340.38 22.45C338.14 21.81 335.64 21.5 332.95 21.5C327.9 21.5 323.37 22.77 319.11 25.38C315.09 27.86 311.83 31.24 309.41 35.4C307.98 37.71 307.16 39.93 306.47 41.99L306.45 42.06L306.43 42.13C305.78 44.42 305.45 46.78 305.45 49.18C305.45 52.19 305.78 54.56 306.46 56.64C307.2 59.04 308.16 61.16 309.41 63.15C311.87 67.44 315.29 70.86 319.59 73.32L319.64 73.36C324.08 75.8 328.8 76.98 333.73 76.88C338.53 76.88 342.95 75.83 346.88 73.77C351.11 71.59 354.43 68.56 357 64.5C358.62 62.07 359.62 59.89 360.15 57.64C360.87 55.33 361.21 52.89 361.21 50.14V46.78H350.63V46.77ZM316.68 53.04C316.39 51.8 316.25 50.62 316.24 49.48C316.26 49.14 316.39 47.72 316.39 47.72C316.39 47.74 316.51 46.56 316.56 46.07C317.21 42.87 318.38 40.19 320.09 38.12L320.12 38.06C321.92 35.78 323.75 34.32 325.84 33.44L325.93 33.4C328.38 32.29 330.63 31.82 333.04 31.89L333.14 31.9C335.78 31.9 338.25 32.42 340.64 33.48L340.7 33.51L340.77 33.54C341.71 33.92 342.54 34.37 343.29 34.92C338.04 38.49 317.1 52.76 316.68 53.04ZM309.46 63.24C309.44 63.21 309.42 63.19 309.41 63.14C309.4 63.14 309.39 63.13 309.38 63.12L309.46 63.24ZM309.39 35.44C309.4 35.43 309.41 35.42 309.41 35.41C309.42 35.39 309.43 35.37 309.44 35.37L309.39 35.44ZM306.47 56.67C306.47 56.65 306.47 56.65 306.46 56.63C306.46 56.62 306.45 56.6 306.45 56.57L306.47 56.67Z" fill="#EC2227"/>
<path d="M222.74 16.49C240.71 16.49 255.27 31.05 255.27 49.02C255.27 66.99 240.7 81.55 222.74 81.55C204.77 81.55 190.21 66.98 190.21 49.02C190.21 31.05 204.77 16.49 222.74 16.49Z" fill="url(#paint0_radial_1_505)"/>
<path d="M204.2 49.22C220.65 58.66 245.45 50.46 252.2 47.92C251.62 32.13 238.66 19.51 222.72 19.51C208.81 19.51 197.16 29.14 194.06 42.08C225.4 30.43 241.28 48.79 241.28 48.79C224.8 39.36 199.96 47.59 193.25 50.11C193.84 65.89 206.81 78.51 222.72 78.51C236.63 78.51 248.28 68.9 251.41 55.95C220.07 67.57 204.2 49.22 204.2 49.22Z" fill="url(#paint1_linear_1_505)"/>
<path d="M246.14 40.1C246.14 50.09 235.65 58.19 222.73 58.19C209.81 58.19 199.33 50.09 199.33 40.1C199.33 30.11 209.8 22.02 222.73 22.02C235.65 22.02 246.14 30.11 246.14 40.1Z" fill="url(#paint2_linear_1_505)"/>
<path d="M251.42 55.95C251.3 56 251.21 56.02 251.1 56.05C247.6 68.09 236.24 76.93 222.73 76.93C207.1 76.93 194.31 65.09 193.31 50.1C193.29 50.1 193.27 50.11 193.25 50.11C193.84 65.89 206.81 78.51 222.72 78.51C237.2 78.51 249.23 68.1 251.74 54.35C251.65 54.9 251.53 55.43 251.42 55.95Z" fill="url(#paint3_linear_1_505)"/>
<path d="M241.29 48.8C241.29 48.8 225.41 30.44 194.07 42.09C193.53 44.31 193.23 46.63 193.23 49.02C193.23 49.39 193.25 49.76 193.26 50.12C199.97 47.6 224.8 39.36 241.29 48.8Z" fill="white"/>
<path d="M252.21 47.92C245.46 50.46 220.66 58.66 204.21 49.22C204.21 49.22 220.07 67.57 251.42 55.96C251.95 53.73 252.26 51.46 252.26 49.08C252.26 48.69 252.23 48.28 252.21 47.92Z" fill="white"/>
<path d="M252.21 47.92C250.06 48.73 246.05 50.11 241.09 51.31C236.8 55.51 230.18 58.18 222.73 58.18C221.4 58.18 220.12 58.09 218.85 57.92C226.64 60.35 237.49 61.11 251.42 55.95C251.95 53.72 252.26 51.45 252.26 49.07C252.26 48.69 252.23 48.28 252.21 47.92Z" fill="url(#paint4_radial_1_505)"/>
<path d="M322.13 121.58L326.55 119.18C326.88 120.34 327.48 121.22 328.37 121.83C329.25 122.44 330.39 122.74 331.78 122.74C332.97 122.74 333.91 122.47 334.59 121.92C335.27 121.37 335.61 120.62 335.61 119.68C335.61 118.42 334.4 117.34 331.98 116.44C331.16 116.15 330.53 115.9 330.09 115.7C327.6 114.67 325.87 113.62 324.88 112.56C323.89 111.5 323.4 110.2 323.4 108.68C323.4 106.6 324.21 104.92 325.84 103.63C327.47 102.34 329.62 101.69 332.3 101.69C334.1 101.69 335.64 102.02 336.93 102.68C338.21 103.34 339.15 104.29 339.74 105.51L335.96 108.11C335.68 107.37 335.19 106.79 334.5 106.36C333.8 105.93 333 105.71 332.08 105.71C331.07 105.71 330.25 105.95 329.64 106.43C329.03 106.91 328.72 107.55 328.72 108.36C328.72 109.57 330.09 110.67 332.84 111.67C333.71 111.98 334.38 112.23 334.85 112.43C336.99 113.28 338.53 114.24 339.45 115.31C340.37 116.38 340.84 117.72 340.84 119.32C340.84 121.64 340 123.46 338.31 124.78C336.63 126.1 334.3 126.75 331.34 126.75C329.07 126.75 327.18 126.32 325.67 125.47C324.15 124.63 322.98 123.33 322.13 121.58Z" fill="#EC2227"/>
<path d="M342.51 121.58L346.93 119.18C347.26 120.34 347.86 121.22 348.75 121.83C349.63 122.44 350.77 122.74 352.16 122.74C353.35 122.74 354.29 122.47 354.97 121.92C355.65 121.37 355.99 120.62 355.99 119.68C355.99 118.42 354.78 117.34 352.36 116.44C351.54 116.15 350.91 115.9 350.47 115.7C347.98 114.67 346.25 113.62 345.26 112.56C344.27 111.5 343.78 110.2 343.78 108.68C343.78 106.6 344.59 104.92 346.22 103.63C347.85 102.34 350 101.69 352.68 101.69C354.48 101.69 356.02 102.02 357.31 102.68C358.59 103.34 359.53 104.29 360.12 105.51L356.34 108.11C356.06 107.37 355.57 106.79 354.88 106.36C354.18 105.93 353.38 105.71 352.46 105.71C351.45 105.71 350.63 105.95 350.02 106.43C349.41 106.91 349.1 107.55 349.1 108.36C349.1 109.57 350.47 110.67 353.22 111.67C354.09 111.98 354.76 112.23 355.23 112.43C357.37 113.28 358.91 114.24 359.83 115.31C360.75 116.38 361.22 117.72 361.22 119.32C361.22 121.64 360.38 123.46 358.69 124.78C357.01 126.1 354.68 126.75 351.72 126.75C349.45 126.75 347.56 126.32 346.05 125.47C344.54 124.63 343.36 123.33 342.51 121.58Z" fill="#EC2227"/>
<path d="M315.88 113.1V114.62C315.88 115.41 315.8 116 315.64 116.44L315.63 116.47L315.62 116.5C315.4 117.16 315.05 117.81 314.69 118.48C314.02 119.6 313.11 120.49 311.91 121.18L311.88 121.2C311.3 121.56 310.69 121.82 310.06 121.97H310.03H310C309.34 122.16 308.66 122.25 307.96 122.25C307.73 122.21 306.43 122.02 306.22 121.99C304.85 121.58 303.71 120.98 302.85 120.19C302.84 120.17 302.82 120.16 302.8 120.14C302.93 120.05 319.49 108.83 319.49 108.83L318.83 107.62C317.89 105.89 316.45 104.5 314.41 103.35C313.4 102.75 312.36 102.34 311.25 102.08C310.23 101.79 309.09 101.65 307.87 101.65C305.58 101.65 303.53 102.22 301.6 103.41C299.78 104.53 298.29 106.07 297.2 107.95C296.56 108.99 296.18 110 295.87 110.94L295.86 110.97V111C295.56 112.04 295.41 113.11 295.41 114.19C295.41 115.55 295.56 116.63 295.87 117.57C296.21 118.66 296.64 119.62 297.2 120.52C298.32 122.46 299.88 124.01 301.82 125.13L301.85 125.15C303.86 126.25 306.01 126.79 308.23 126.75C310.41 126.75 312.41 126.28 314.19 125.34C316.11 124.35 317.61 122.98 318.79 121.14C319.53 120.02 320 119 320.23 117.96C320.54 116.94 320.69 115.85 320.69 114.63V113.11H315.88V113.1ZM300.5 115.95C300.36 115.39 300.29 114.85 300.29 114.33C300.3 114.17 300.36 113.53 300.36 113.53C300.36 113.54 300.42 113 300.44 112.78C300.73 111.33 301.27 110.11 302.04 109.17L302.05 109.14C302.87 108.11 303.69 107.44 304.64 107.05L304.68 107.03C305.79 106.53 306.81 106.32 307.9 106.35H307.95C309.15 106.35 310.26 106.59 311.35 107.07L311.38 107.09L311.41 107.1C311.84 107.27 312.21 107.48 312.55 107.73C310.17 109.35 300.69 115.82 300.5 115.95Z" fill="#EC2227"/>
<path d="M225.1 113.1V114.62C225.1 115.41 225.02 116 224.86 116.44L224.85 116.47L224.84 116.5C224.62 117.16 224.27 117.81 223.91 118.48C223.24 119.6 222.33 120.49 221.13 121.18L221.1 121.2C220.52 121.56 219.91 121.82 219.28 121.97H219.25H219.22C218.56 122.16 217.88 122.25 217.18 122.25C216.95 122.21 215.65 122.02 215.44 121.99C214.07 121.58 212.93 120.98 212.07 120.19C212.06 120.17 212.04 120.16 212.02 120.14C212.15 120.05 228.71 108.83 228.71 108.83L228.05 107.62C227.11 105.89 225.67 104.5 223.63 103.35C222.62 102.75 221.58 102.34 220.47 102.08C219.45 101.79 218.31 101.65 217.09 101.65C214.8 101.65 212.75 102.22 210.82 103.41C209 104.53 207.51 106.07 206.42 107.95C205.78 108.99 205.4 110 205.09 110.94L205.08 110.97V111C204.78 112.04 204.63 113.11 204.63 114.19C204.63 115.55 204.78 116.63 205.09 117.57C205.43 118.66 205.86 119.62 206.42 120.52C207.54 122.46 209.1 124.01 211.04 125.13L211.07 125.15C213.08 126.25 215.23 126.79 217.45 126.75C219.63 126.75 221.63 126.28 223.41 125.34C225.33 124.35 226.83 122.98 228.01 121.14C228.75 120.02 229.22 119 229.45 117.96C229.76 116.94 229.91 115.85 229.91 114.63V113.11H225.1V113.1ZM209.72 115.95C209.58 115.39 209.51 114.85 209.51 114.33C209.52 114.17 209.58 113.53 209.58 113.53C209.58 113.54 209.64 113 209.66 112.78C209.95 111.33 210.49 110.11 211.26 109.17L211.27 109.14C212.09 108.11 212.91 107.44 213.86 107.05L213.9 107.03C215.01 106.53 216.03 106.32 217.12 106.35H217.17C218.37 106.35 219.48 106.59 220.57 107.07L220.6 107.09L220.63 107.1C221.06 107.27 221.43 107.48 221.77 107.73C219.39 109.35 209.91 115.82 209.72 115.95Z" fill="#EC2227"/>
<path d="M293.83 102.19C293.71 102.19 293.59 102.17 293.47 102.18H293.44C292.32 102.23 291.32 102.39 290.41 102.67L290.36 102.68L290.32 102.7C289.27 103.09 288.41 103.55 287.77 104.08C286.35 105.18 285.36 106.48 284.73 108.05C284.14 109.51 283.86 110.84 283.86 112.09V126.76H288.62V112.22C288.62 111.28 288.86 110.43 289.36 109.52C289.83 108.65 290.45 107.99 291.26 107.48L291.29 107.46C291.99 107.01 292.8 106.77 293.69 106.77H293.78C293.8 106.77 293.82 106.77 293.84 106.77V102.19H293.83Z" fill="#EC2227"/>
<path d="M280.45 109.34C279.81 107.84 278.89 106.5 277.67 105.31C276.45 104.1 275.07 103.19 273.53 102.58C271.99 101.96 270.35 101.65 268.61 101.65C266.92 101.65 265.3 101.96 263.75 102.58C262.21 103.19 260.84 104.08 259.65 105.24C258.45 106.41 257.52 107.75 256.88 109.25C256.27 110.69 255.95 112.22 255.93 113.83C255.93 113.83 255.93 114.14 255.93 114.68V129.3C255.93 129.33 255.92 129.36 255.92 129.38V137.2C255.93 137.2 255.93 137.19 255.94 137.19C257.23 136.57 258.32 135.62 259.16 134.38C259.61 133.74 259.97 133.02 260.23 132.26L260.24 132.23L260.25 132.2C260.45 131.48 260.55 130.68 260.55 129.81V123.69C261.53 124.49 262.6 125.13 263.78 125.61C265.32 126.23 266.94 126.55 268.61 126.55C270.32 126.55 271.95 126.23 273.49 125.61C275.04 124.98 276.45 124.06 277.72 122.84C278.92 121.68 279.84 120.35 280.46 118.86C281.09 117.36 281.4 115.76 281.4 114.05C281.4 112.4 281.08 110.83 280.45 109.34ZM273.72 119.55C272.33 121.04 270.64 121.79 268.66 121.79C266.67 121.79 264.99 121.04 263.59 119.55C262.2 118.06 261.51 116.24 261.51 114.1C261.51 111.95 262.2 110.13 263.59 108.64C264.99 107.15 266.67 106.41 268.66 106.41C270.66 106.41 272.35 107.15 273.74 108.64C275.12 110.13 275.81 111.95 275.81 114.1C275.81 116.24 275.12 118.06 273.72 119.55Z" fill="#EC2227"/>
<path d="M235.99 103.26C235.4 102.39 234.42 101.88 233.38 101.88H228.91L237.06 112.94L239.95 109.07L235.99 103.26Z" fill="#EC2227"/>
<path d="M253.26 126.32H248.61C247.57 126.32 246.59 125.81 246 124.94L240.77 117.28L235.57 124.93C234.99 125.8 234.01 126.32 232.96 126.32H228.31L234.82 117.61L234.85 117.56L234.88 117.53L237.68 113.78L240.55 109.94L245.54 103.27L245.63 103.14C245.84 102.86 246.09 102.62 246.37 102.42C246.89 102.07 247.51 101.88 248.16 101.88H252.62L243.9 113.78L253.26 126.32Z" fill="#EC2227"/>
<path d="M193.24 103.95C193.24 104.59 193.58 105.17 194.13 105.49L198.39 107.94C199.57 108.62 201.05 107.77 201.05 106.4C201.05 105.76 200.71 105.18 200.16 104.86L195.9 102.41C194.71 101.73 193.24 102.59 193.24 103.95Z" fill="#EC2227"/>
<path d="M197.52 114C197.52 113.03 198.31 112.23 199.28 112.23C199.77 112.23 200.21 112.43 200.53 112.75C200.61 112.83 200.68 112.91 200.74 113C200.75 113.01 200.76 113.02 200.76 113.02C200.82 113.11 200.87 113.21 200.91 113.31C200.96 113.42 200.99 113.53 201.01 113.65C201.04 113.76 201.05 113.87 201.05 113.99V114C201.05 114.48 200.85 114.92 200.53 115.24C200.47 115.31 200.4 115.37 200.32 115.42C200.22 115.5 200.1 115.57 199.97 115.62C199.76 115.71 199.53 115.76 199.28 115.76C198.31 115.76 197.52 114.97 197.52 114Z" fill="#EC2227"/>
<path d="M181.9 105.03C181.9 103.67 183.37 102.81 184.56 103.49L195.41 109.72C195.45 109.74 195.48 109.76 195.51 109.78C195.98 110.1 196.29 110.64 196.29 111.25C196.29 112.23 195.49 113.03 194.51 113.03C194.14 113.03 193.8 112.92 193.52 112.73L182.79 106.57C182.24 106.25 181.9 105.66 181.9 105.03Z" fill="#EC2227"/>
<defs>
<radialGradient id="paint0_radial_1_505" cx="0" cy="0" r="1" gradientUnits="userSpaceOnUse" gradientTransform="translate(222.74 49.019) scale(32.5302 32.5336)">
<stop stop-color="#971D20"/>
<stop offset="0.7473" stop-color="#EB2127"/>
<stop offset="0.7626" stop-color="#EC3A30"/>
<stop offset="0.8515" stop-color="#F49074"/>
<stop offset="0.9233" stop-color="#FBC9B6"/>
<stop offset="0.9744" stop-color="#FEEEE6"/>
<stop offset="1" stop-color="white"/>
</radialGradient>
<linearGradient id="paint1_linear_1_505" x1="222.73" y1="78.5138" x2="222.73" y2="19.5122" gradientUnits="userSpaceOnUse">
<stop stop-color="#F06724"/>
<stop offset="0.5" stop-color="#EB2127"/>
<stop offset="1" stop-color="#A51E22"/>
</linearGradient>
<linearGradient id="paint2_linear_1_505" x1="222.737" y1="22.0199" x2="222.737" y2="58.1831" gradientUnits="userSpaceOnUse">
<stop stop-color="#F5967A"/>
<stop offset="1" stop-color="#E01F26"/>
</linearGradient>
<linearGradient id="paint3_linear_1_505" x1="193.256" y1="64.3099" x2="252.263" y2="64.3099" gradientUnits="userSpaceOnUse">
<stop stop-color="#F06724"/>
<stop offset="0.5" stop-color="#EB2127"/>
<stop offset="1" stop-color="#A51E22"/>
</linearGradient>
<radialGradient id="paint4_radial_1_505" cx="0" cy="0" r="1" gradientUnits="userSpaceOnUse" gradientTransform="translate(230.83 55.1601) scale(21.1791 21.1791)">
<stop stop-color="white"/>
<stop offset="0.2108" stop-color="#F7F7F7"/>
<stop offset="0.533" stop-color="#E2E2E2"/>
<stop offset="0.9245" stop-color="#C0C0C0"/>
<stop offset="1" stop-color="#B8B8B8"/>
</radialGradient>
</defs>
</svg>
